<?xml version="1.0" encoding="UTF-8" standalone="no"?>
<svg
   xmlns:dc="http://purl.org/dc/elements/1.1/"
   xmlns:cc="http://creativecommons.org/ns#"
   xmlns:rdf="http://www.w3.org/1999/02/22-rdf-syntax-ns#"
   xmlns:svg="http://www.w3.org/2000/svg"
   xmlns="http://www.w3.org/2000/svg"
   xmlns:sodipodi="http://sodipodi.sourceforge.net/DTD/sodipodi-0.dtd"
   xmlns:inkscape="http://www.inkscape.org/namespaces/inkscape"
   viewBox="0 0 366.66901 366.66846"
   version="1.1"
   id="svg4"
   sodipodi:docname="phone.svg"
   inkscape:version="0.92.4 5da689c313, 2019-01-14"
   width="366.66901"
   height="366.66846">
  <metadata
     id="metadata10">
    <rdf:RDF>
      <cc:Work
         rdf:about="">
        <dc:format>image/svg+xml</dc:format>
        <dc:type
           rdf:resource="http://purl.org/dc/dcmitype/StillImage" />
        <dc:title></dc:title>
      </cc:Work>
    </rdf:RDF>
  </metadata>
  <defs
     id="defs8" />
  <sodipodi:namedview
     pagecolor="#ffffff"
     bordercolor="#666666"
     borderopacity="1"
     objecttolerance="10"
     gridtolerance="10"
     guidetolerance="10"
     inkscape:pageopacity="0"
     inkscape:pageshadow="2"
     inkscape:window-width="949"
     inkscape:window-height="1018"
     id="namedview6"
     showgrid="false"
     inkscape:zoom="0.4609375"
     inkscape:cx="261.27853"
     inkscape:cy="181.02466"
     inkscape:window-x="962"
     inkscape:window-y="31"
     inkscape:window-maximized="0"
     inkscape:current-layer="svg4"
     fit-margin-top="0"
     fit-margin-left="0"
     fit-margin-right="0"
     fit-margin-bottom="0" />
  <path
     d="M 332.29281,366.66845 C 148.62324,366.66845 0,217.77227 0,34.375637 0,26.317451 5.582608,19.413967 13.322599,17.627816 L 87.802156,0.4422916 c 8.104815,-1.870581 16.385994,2.331216 19.662514,9.9765704 l 34.37459,80.206415 c 3.0165,7.03877 1.01255,15.224123 -4.9144,20.073353 L 93.515579,146.2166 c 26.311441,56.08205 72.025191,101.17496 126.936271,126.93627 l 35.51797,-43.41069 c 4.84923,-5.92695 13.03458,-7.9309 20.07335,-4.9144 l 80.20712,34.37529 c 7.64506,3.27684 11.84673,11.55776 9.97657,19.66252 l -17.18552,74.47956 c -1.80035,7.79864 -8.74478,13.32287 -16.74853,13.3233 z"
     id="path2"
     inkscape:connector-curvature="0"
     sodipodi:nodetypes="csccccccccccccc" />
</svg>
